<?xml version="1.0" standalone="no"?>
<!DOCTYPE svg PUBLIC "-//W3C//DTD SVG 20010904//EN"
 "http://www.w3.org/TR/2001/REC-SVG-20010904/DTD/svg10.dtd">
<svg version="1.0" xmlns="http://www.w3.org/2000/svg"
 width="1080.000000pt" height="1080.000000pt" viewBox="0 0 1080.000000 1080.000000"
 preserveAspectRatio="xMidYMid meet">
<metadata>
Created by potrace 1.16, written by Peter Selinger 2001-2019
</metadata>
<g transform="translate(0.000000,1080.000000) scale(0.100000,-0.100000)"
fill="#000000" stroke="none">
<path d="M2013 9403 c-7 -2 -13 -18 -13 -34 0 -17 -6 -32 -15 -35 -17 -7 -21
-34 -5 -34 6 0 10 -4 10 -10 0 -5 -7 -10 -15 -10 -13 0 -15 -53 -15 -415 0
-362 2 -415 15 -415 11 0 15 -11 15 -40 0 -22 -4 -40 -10 -40 -15 0 -12 -68 2
-72 15 -5 40 -141 27 -146 -16 -6 -10 -42 7 -42 9 0 18 -9 21 -20 7 -28 43
-26 44 3 1 16 2 18 6 5 2 -10 11 -18 19 -18 22 0 21 -326 -2 -351 -13 -15 -20
-16 -36 -6 -16 10 -21 9 -29 -5 -6 -10 -17 -18 -24 -18 -20 0 -19 -26 1 -34
14 -5 14 -7 0 -22 -9 -9 -16 -32 -16 -55 0 -26 -5 -42 -15 -45 -17 -7 -22 -94
-5 -94 6 0 10 -11 10 -25 0 -16 -6 -25 -15 -25 -12 0 -15 -19 -15 -110 l0
-110 -48 0 c-59 0 -72 -12 -72 -64 0 -55 -10 -86 -25 -86 -8 0 -21 -8 -31 -17
-13 -13 -19 -14 -22 -5 -6 19 -30 14 -37 -7 -3 -10 -15 -21 -25 -24 -26 -7
-28 -63 -2 -70 16 -4 16 -5 0 -6 -10 0 -18 -8 -18 -16 0 -9 -14 -17 -39 -21
-27 -4 -41 -12 -44 -25 -3 -11 -12 -19 -21 -19 -20 0 -21 -19 -1 -26 23 -9 18
-24 -9 -24 -27 0 -42 -26 -26 -45 15 -18 -8 -25 -59 -18 -37 5 -41 4 -41 -16
0 -14 -6 -21 -20 -21 -16 0 -20 -7 -20 -35 0 -27 4 -35 18 -35 16 -1 16 -1 0
-11 -12 -6 -18 -22 -18 -44 0 -24 -5 -35 -15 -35 -23 0 -21 -69 3 -72 9 -1
-19 -4 -63 -7 l-80 -6 -3 -77 -3 -78 -53 0 c-45 0 -54 -3 -59 -20 -3 -11 -12
-20 -21 -20 -12 0 -16 -10 -16 -35 0 -21 5 -35 13 -35 8 0 7 -3 -3 -10 -13 -8
-15 -102 -15 -745 0 -643 2 -737 15 -745 8 -5 43 -10 78 -10 l62 0 0 -79 c0
-67 3 -80 18 -84 16 -4 16 -5 0 -6 -34 -2 -16 -35 25 -45 26 -6 27 -7 11 -31
-18 -28 -13 -55 11 -55 9 0 15 9 15 25 0 14 2 25 5 25 14 0 55 -34 55 -45 0
-7 5 -15 12 -17 18 -6 11 -199 -8 -214 -18 -15 -18 -34 1 -34 13 0 13 -4 -2
-26 -15 -24 -21 -26 -61 -20 -38 5 -45 3 -49 -14 -3 -11 -12 -20 -19 -20 -11
0 -14 -25 -14 -125 0 -102 -3 -125 -14 -125 -8 0 -17 -8 -19 -17 -4 -17 -5
-17 -6 0 -1 19 -41 24 -41 5 0 -16 -44 -58 -59 -58 -6 0 -11 -9 -11 -20 0 -11
5 -20 10 -20 6 0 10 -11 10 -25 0 -16 -6 -25 -15 -25 -13 0 -15 -72 -15 -590
l0 -590 80 0 80 0 0 -52 c0 -72 9 -98 31 -98 11 0 19 5 19 10 0 6 5 10 10 10
6 0 10 -7 10 -15 0 -12 19 -15 110 -15 102 0 110 -1 110 -19 0 -11 9 -23 20
-26 23 -7 27 -25 5 -25 -21 0 -19 -26 5 -50 26 -26 36 -25 43 1 7 25 27 16 27
-12 0 -17 8 -19 88 -19 48 0 158 -3 245 -7 156 -6 157 -6 157 -30 0 -12 6 -23
13 -23 7 0 21 -13 30 -30 15 -24 25 -30 52 -30 24 0 38 -6 45 -20 14 -25 100
-30 100 -5 0 12 13 15 55 15 42 0 55 -3 55 -15 0 -13 29 -15 205 -15 l205 0 0
-35 c0 -49 31 -77 92 -83 42 -4 48 -2 48 14 0 17 2 17 18 -4 l17 -22 2418 2
c2381 3 2419 3 2433 22 8 11 14 39 14 63 l0 43 265 0 c229 0 265 2 265 15 0
12 13 15 55 15 42 0 55 -3 55 -15 0 -20 73 -20 94 0 17 17 36 20 36 5 0 -18
29 -10 35 10 3 11 11 20 16 20 15 0 79 68 79 84 0 11 35 15 185 21 147 6 185
10 185 21 0 8 7 14 15 14 8 0 15 -7 15 -15 0 -8 7 -15 15 -15 8 0 15 6 15 14
0 23 47 48 69 36 14 -7 20 -6 25 5 3 8 15 15 26 15 25 0 28 37 3 43 -17 4 -17
5 0 6 9 0 17 8 17 16 0 12 18 15 104 15 128 0 163 6 169 31 3 10 12 19 21 19
22 0 21 40 -1 41 -15 0 -14 3 5 16 12 8 22 24 22 34 0 17 9 19 105 19 77 0
105 3 105 13 0 14 43 57 58 57 7 0 10 80 10 230 1 220 0 230 -19 230 -14 0
-19 7 -19 30 0 29 -2 30 -45 30 l-45 0 0 249 c0 229 -1 250 -17 254 -17 4 -17
5 0 6 21 1 23 41 2 41 -9 0 -20 11 -25 25 -8 22 -15 25 -60 25 l-50 0 0 135
c0 117 -2 135 -17 144 -10 6 -12 11 -5 11 26 0 12 50 -23 81 -19 18 -35 38
-35 46 0 19 -38 16 -43 -5 -4 -16 -5 -16 -6 1 0 9 -8 17 -16 17 -12 0 -15 14
-15 70 l0 70 29 0 c20 0 31 6 34 17 4 17 5 17 6 1 1 -21 41 -25 41 -4 0 15 21
26 51 26 10 0 19 5 19 10 0 6 5 10 10 10 6 0 10 -7 10 -15 0 -23 27 -18 33 6
3 11 15 23 26 26 25 6 27 18 6 27 -23 9 -18 26 9 26 28 0 36 28 36 121 l0 59
50 0 c38 0 50 4 50 15 0 8 6 15 14 15 12 0 15 23 15 117 0 126 2 131 61 143
l25 5 3 522 2 522 -35 7 c-25 4 -35 11 -35 25 0 11 -4 19 -10 19 -6 0 -10 50
-10 130 0 109 -2 130 -15 130 -8 0 -15 5 -15 10 0 6 5 10 10 10 6 0 10 16 10
35 0 28 -4 35 -20 35 -13 0 -20 7 -20 20 0 16 -7 20 -34 20 -24 0 -36 -5 -39
-17 -3 -10 -5 15 -6 55 -1 56 -4 72 -16 72 -8 0 -17 11 -21 25 -6 23 -11 25
-60 25 l-54 0 0 43 c0 51 -7 63 -43 76 -15 6 -27 17 -27 26 0 11 -11 15 -45
15 l-45 0 0 54 c0 49 -2 54 -25 60 -14 4 -25 13 -25 21 0 11 -11 15 -40 15
-38 0 -40 2 -40 30 0 20 -5 30 -15 30 -8 0 -15 5 -15 10 0 6 7 10 15 10 8 0
15 7 15 15 0 8 -6 15 -14 15 -10 0 -17 17 -21 54 -4 32 -13 57 -21 60 -8 3
-14 17 -14 31 0 18 -5 25 -20 25 -11 0 -20 -4 -20 -10 0 -5 -9 -2 -20 7 -18
16 -20 30 -20 145 0 102 -3 130 -16 142 -8 9 -11 16 -5 16 6 0 11 15 11 34 0
25 -5 35 -20 39 -15 4 -20 14 -20 36 0 24 -4 31 -19 31 -11 0 -22 -8 -24 -17
-4 -15 -5 -15 -6 -2 -1 10 -13 19 -31 23 l-30 6 0 220 0 220 25 0 c16 0 25 6
25 15 0 8 5 15 10 15 6 0 10 -7 10 -16 0 -11 5 -14 16 -10 9 3 18 6 20 6 2 0
4 9 4 19 0 30 11 51 26 51 18 0 20 70 2 70 -7 0 -5 5 5 11 15 9 17 31 17 224
l0 215 25 0 c16 0 25 6 25 15 0 8 5 15 10 15 6 0 10 -7 10 -15 0 -18 21 -20
38 -3 17 17 15 38 -3 38 -18 0 -18 2 -6 32 6 13 13 44 16 71 4 31 11 47 21 47
9 0 14 11 14 35 0 24 -5 35 -15 35 -11 0 -15 11 -15 40 0 29 4 40 15 40 12 0
15 19 15 110 0 87 -3 110 -14 110 -22 0 -28 43 -9 58 15 10 15 16 5 32 -6 11
-12 28 -12 38 0 37 -44 57 -53 25 -4 -15 -5 -15 -6 -2 -1 13 -18 17 -83 22
-106 9 -243 9 -385 0 -99 -5 -113 -8 -113 -24 0 -9 -3 -24 -6 -33 -5 -14 -7
-14 -21 0 -20 20 -35 6 -37 -36 -2 -47 -27 -60 -113 -60 -67 0 -74 -2 -83 -22
-7 -18 -9 -19 -9 -5 -1 31 -38 20 -45 -13 -4 -24 -12 -32 -36 -36 -34 -7 -42
-39 -12 -47 13 -4 12 -5 -5 -6 -12 0 -24 -9 -26 -18 -4 -17 -5 -17 -6 0 -2 31
-50 21 -87 -18 -18 -19 -37 -35 -42 -35 -6 0 -13 -18 -17 -39 -6 -37 -9 -39
-51 -46 -28 -4 -44 -11 -44 -21 0 -8 -4 -14 -9 -14 -5 0 -13 -9 -16 -20 -3
-11 -13 -20 -21 -20 -10 0 -14 -12 -14 -40 l0 -40 -60 0 -60 0 0 -35 c0 -18
-6 -38 -13 -42 -23 -13 -28 -41 -9 -46 16 -4 15 -5 0 -6 -10 0 -18 -8 -18 -16
0 -10 -15 -15 -57 -17 -42 -2 -58 -7 -60 -18 -14 -110 -14 -110 -34 -110 -10
0 -19 -7 -19 -15 0 -8 -7 -15 -15 -15 -8 0 -15 5 -15 10 0 16 -19 12 -51 -11
-33 -23 -38 -45 -11 -52 16 -4 16 -5 0 -6 -16 -1 -18 -13 -18 -111 l0 -110
-53 0 c-49 0 -53 -2 -64 -30 -6 -16 -18 -30 -27 -30 -13 0 -16 -11 -16 -50 l0
-50 -40 0 c-33 0 -40 -3 -40 -20 0 -13 -7 -20 -20 -20 -16 0 -20 -7 -20 -35 0
-24 5 -35 15 -35 8 0 15 -4 15 -10 0 -5 -7 -10 -15 -10 -13 0 -15 -22 -15
-140 0 -157 -1 -160 -79 -160 -31 0 -41 -4 -41 -16 0 -9 -9 -18 -20 -21 -19
-5 -20 -14 -20 -129 l0 -124 -29 0 c-20 0 -31 -6 -34 -17 -4 -17 -5 -17 -6 0
-1 24 -37 22 -44 -3 -3 -11 -12 -20 -21 -20 -9 0 -16 -8 -16 -20 0 -11 5 -20
10 -20 6 0 10 -4 10 -10 0 -5 -7 -10 -15 -10 -12 0 -15 -21 -16 -122 -1 -68
-3 -115 -6 -105 -3 11 -10 16 -20 13 -8 -3 -23 -6 -34 -6 -12 0 -19 -7 -19
-20 0 -13 -7 -20 -20 -20 -26 0 -26 -26 0 -33 17 -4 18 -9 10 -38 -10 -33 -25
-49 -47 -49 -20 0 -15 -38 5 -43 16 -4 16 -5 0 -6 -16 -1 -18 -13 -18 -111 0
-92 -3 -110 -15 -110 -9 0 -38 -24 -65 -52 -46 -48 -48 -53 -30 -60 26 -10 26
-38 0 -45 -18 -5 -20 -14 -21 -82 -1 -42 -3 -68 -6 -58 -4 16 -31 17 -381 18
-207 1 -369 3 -359 6 23 6 22 39 -3 46 -15 4 -20 14 -20 36 l0 31 -483 0 -483
0 -11 -30 c-6 -16 -18 -30 -27 -30 -11 0 -16 -9 -16 -30 l0 -30 -285 0 -285 0
0 234 c0 215 -1 235 -17 239 -17 4 -17 5 0 6 24 1 22 37 -4 44 -12 3 -19 12
-17 22 4 21 -32 46 -39 28 -7 -18 -33 -16 -33 2 0 8 -9 15 -20 15 -19 0 -20 7
-20 148 0 196 -7 252 -31 252 -12 0 -19 7 -19 20 0 16 -7 20 -34 20 -24 0 -36
-5 -39 -17 -4 -17 -5 -17 -6 0 0 9 -8 17 -16 17 -13 0 -15 22 -15 139 0 130
-1 139 -20 144 -26 7 -26 36 1 46 l22 8 -24 22 c-13 12 -24 27 -25 34 -3 33
-5 37 -19 37 -9 0 -15 -9 -15 -25 0 -16 -6 -25 -15 -25 -10 0 -15 10 -15 30 0
17 -4 30 -10 30 -6 0 -10 33 -10 79 0 67 -3 80 -17 84 -17 4 -17 5 0 6 23 1
25 71 1 71 -9 0 -18 9 -21 20 -5 20 -19 24 -80 20 l-33 -2 0 105 c0 122 -7
167 -27 167 -7 0 -17 8 -20 18 -10 25 -23 32 -70 32 l-43 0 0 69 c0 100 -8
128 -37 136 -15 3 -30 18 -39 40 -16 40 -29 45 -37 14 -5 -18 -8 -19 -26 -7
-21 13 -27 45 -22 130 2 33 -1 39 -24 48 -14 5 -42 10 -61 10 -32 0 -34 2 -34
33 0 56 -10 74 -41 81 -16 3 -29 12 -29 20 0 9 -16 16 -45 20 l-45 7 0 42 c0
39 -3 43 -40 61 -22 11 -40 25 -40 33 0 7 -7 13 -15 13 -8 0 -15 -7 -15 -15 0
-8 -4 -15 -10 -15 -5 0 -10 7 -10 15 0 8 -7 15 -15 15 -10 0 -15 15 -17 57 -4
70 -5 71 -165 72 l-113 1 0 64 c0 39 -5 68 -12 74 -7 5 -43 13 -80 17 -56 6
-68 10 -68 25 0 12 -10 21 -30 25 -37 8 -40 25 -4 25 32 0 30 33 -3 38 -12 2
-27 10 -33 18 -16 18 -40 18 -40 0 0 -8 -7 -16 -15 -20 -20 -7 -65 14 -65 31
0 10 -36 13 -182 12 -101 0 -189 -3 -195 -6z"/>
</g>
</svg>
