<svg xmlns="http://www.w3.org/2000/svg" xmlns:xlink="http://www.w3.org/1999/xlink" width="1500" zoomAndPan="magnify" viewBox="0 0 1125 508.499985" height="678" preserveAspectRatio="xMidYMid meet" version="1.0"><defs><g/><clipPath id="4e5866ba7d"><path d="M 0.550781 75 L 214 75 L 214 296 L 0.550781 296 Z M 0.550781 75 " clip-rule="nonzero"/></clipPath></defs><g clip-path="url(#4e5866ba7d)"><path fill="#0982a8" d="M 0.636719 78.480469 C 107.066406 61.871094 175.378906 115.277344 175.378906 115.277344 C 228.59375 190.574219 211.234375 279.265625 211.234375 279.265625 C 110.085938 233.976562 8.9375 295.875 8.9375 295.875 C 86.6875 205.292969 0.636719 78.480469 0.636719 78.480469 " fill-opacity="1" fill-rule="nonzero"/></g><path fill="#0982a8" d="M 193.277344 311.726562 C 193.277344 320.390625 188.105469 327.75 180.835938 330.6875 C 186.765625 326.957031 190.832031 319.910156 190.832031 311.726562 C 190.832031 303.535156 186.765625 296.492188 180.835938 292.761719 C 188.105469 295.703125 193.277344 303.058594 193.277344 311.726562 Z M 183.234375 311.726562 C 183.234375 318.890625 177.710938 324.699219 170.898438 324.699219 C 164.085938 324.699219 158.558594 318.890625 158.558594 311.726562 C 158.558594 304.554688 164.085938 298.753906 170.898438 298.753906 C 177.710938 298.753906 183.234375 304.554688 183.234375 311.726562 Z M 199.441406 311.726562 C 199.441406 297.339844 188.347656 285.683594 174.671875 285.683594 C 160.992188 285.683594 149.90625 297.339844 149.90625 311.726562 C 149.90625 326.109375 160.992188 337.769531 174.671875 337.769531 C 188.347656 337.769531 199.441406 326.109375 199.441406 311.726562 " fill-opacity="1" fill-rule="nonzero"/><path fill="#0982a8" d="M 113.722656 333.753906 C 106.90625 333.753906 101.382812 327.949219 101.382812 320.78125 C 101.382812 313.621094 106.90625 307.8125 113.722656 307.8125 C 120.53125 307.8125 126.058594 313.621094 126.058594 320.78125 C 126.058594 327.949219 120.53125 333.753906 113.722656 333.753906 Z M 123.660156 339.742188 C 129.589844 336.011719 133.652344 328.96875 133.652344 320.78125 C 133.652344 312.59375 129.589844 305.546875 123.660156 301.820312 C 130.925781 304.757812 136.101562 312.113281 136.101562 320.78125 C 136.101562 329.453125 130.925781 336.804688 123.660156 339.742188 Z M 117.496094 346.824219 C 131.171875 346.824219 142.261719 335.167969 142.261719 320.78125 C 142.261719 306.402344 131.171875 294.742188 117.496094 294.742188 C 103.8125 294.742188 92.726562 306.402344 92.726562 320.78125 C 92.726562 335.167969 103.8125 346.824219 117.496094 346.824219 " fill-opacity="1" fill-rule="nonzero"/><path fill="#0982a8" d="M 59.65625 338.28125 C 52.839844 338.28125 47.316406 332.472656 47.316406 325.3125 C 47.316406 318.144531 52.839844 312.335938 59.65625 312.335938 C 66.46875 312.335938 71.992188 318.144531 71.992188 325.3125 C 71.992188 332.472656 66.46875 338.28125 59.65625 338.28125 Z M 69.59375 344.273438 C 75.523438 340.542969 79.585938 333.5 79.585938 325.3125 C 79.585938 317.125 75.523438 310.078125 69.59375 306.351562 C 76.859375 309.289062 82.035156 316.644531 82.035156 325.3125 C 82.035156 333.980469 76.859375 341.335938 69.59375 344.273438 Z M 63.425781 351.351562 C 77.109375 351.351562 88.195312 339.695312 88.195312 325.3125 C 88.195312 310.925781 77.109375 299.269531 63.425781 299.269531 C 49.75 299.269531 38.660156 310.925781 38.660156 325.3125 C 38.660156 339.695312 49.75 351.351562 63.425781 351.351562 " fill-opacity="1" fill-rule="nonzero"/><path fill="#0982a8" d="M 272.753906 339.742188 C 272.753906 339.742188 180.238281 382.679688 101.382812 370.976562 C 101.382812 370.976562 226.527344 371.824219 272.753906 280.394531 C 272.753906 280.394531 242.941406 303.832031 199.441406 299.269531 C 199.441406 299.269531 277.285156 282.285156 238.789062 196.988281 C 200.289062 111.691406 261.054688 118.867188 261.054688 118.867188 C 261.054688 118.867188 248.125 108.058594 227.605469 105.230469 C 227.605469 105.230469 262.988281 103.25 289.59375 127.449219 C 289.59375 127.449219 273.320312 100.136719 242.042969 84.570312 C 242.042969 84.570312 292.757812 81.117188 313.515625 129.808594 C 313.515625 129.808594 332.390625 136.980469 338.796875 156.230469 C 345.21875 175.476562 370.316406 182.453125 366.355469 187.742188 C 362.390625 193.027344 365.976562 202.835938 352.386719 206.046875 C 352.386719 206.046875 361.070312 201.144531 357.867188 193.78125 C 354.652344 186.421875 346.730469 185.851562 333.703125 183.589844 C 320.683594 181.324219 312.382812 163.398438 312.382812 163.398438 C 312.382812 163.398438 317.21875 208.230469 337.105469 200.195312 C 337.105469 200.195312 334.652344 209.066406 321.441406 208.3125 C 308.230469 207.554688 307.097656 217.746094 307.097656 217.746094 C 307.097656 217.746094 306.34375 203.964844 310.875 199.0625 C 315.402344 194.160156 283.511719 181.140625 287.101562 158.867188 C 287.101562 158.867188 258.035156 153.023438 253.3125 171.136719 C 248.597656 189.25 326.347656 240.390625 325.59375 295.875 C 324.835938 351.351562 293.511719 446.089844 11.960938 381.167969 C 11.960938 381.167969 208.78125 419.847656 272.753906 339.742188 " fill-opacity="1" fill-rule="nonzero"/><g fill="#0982a8" fill-opacity="1"><g transform="translate(314.821503, 345.995431)"><g><path d="M 54 6.9375 L 1.6875 -115.09375 L 14.5625 -115.09375 L 54 -22.34375 L 93.265625 -115.09375 L 106.125 -115.09375 Z M 54 6.9375 "/></g></g></g><g fill="#0982a8" fill-opacity="1"><g transform="translate(422.643641, 345.995431)"><g><path d="M 24.546875 0 L 12.6875 0 L 12.6875 -115.09375 L 24.546875 -115.09375 Z M 24.546875 0 "/></g></g></g><g fill="#0982a8" fill-opacity="1"><g transform="translate(459.882055, 345.995431)"><g><path d="M 24.546875 0 L 12.6875 0 L 12.6875 -115.09375 L 24.546875 -115.09375 L 24.546875 -61.109375 L 63.3125 -115.09375 L 78.546875 -115.09375 L 36.21875 -57.546875 L 78.546875 0 L 63.3125 0 L 24.546875 -54 Z M 24.546875 0 "/></g></g></g><g fill="#0982a8" fill-opacity="1"><g transform="translate(540.113903, 345.995431)"><g><path d="M 24.546875 0 L 12.6875 0 L 12.6875 -115.09375 L 24.546875 -115.09375 Z M 24.546875 0 "/></g></g></g><g fill="#0982a8" fill-opacity="1"><g transform="translate(577.352329, 345.995431)"><g><path d="M 24.546875 -84.796875 L 24.546875 0 L 12.6875 0 L 12.6875 -122.375 L 77.359375 -30.46875 L 77.359375 -115.09375 L 89.203125 -115.09375 L 89.203125 7.109375 Z M 24.546875 -84.796875 "/></g></g></g><g fill="#0982a8" fill-opacity="1"><g transform="translate(679.250176, 345.995431)"><g><path d="M 126.265625 -53.828125 L 125.09375 -46.71875 C 122.601562 -32.726562 115.773438 -21.21875 104.609375 -12.1875 C 93.429688 -3.15625 80.847656 1.359375 66.859375 1.359375 C 58.734375 1.359375 51.0625 -0.222656 43.84375 -3.390625 C 36.613281 -6.429688 30.347656 -10.660156 25.046875 -16.078125 C 19.628906 -21.378906 15.398438 -27.644531 12.359375 -34.875 C 9.191406 -42.09375 7.609375 -49.820312 7.609375 -58.0625 C 7.609375 -66.1875 9.191406 -73.859375 12.359375 -81.078125 C 15.398438 -88.296875 19.628906 -94.613281 25.046875 -100.03125 C 30.347656 -105.332031 36.613281 -109.566406 43.84375 -112.734375 C 51.0625 -115.773438 58.335938 -117.296875 65.671875 -117.296875 C 79.441406 -117.296875 91.570312 -113.40625 102.0625 -105.625 C 112.675781 -97.832031 119.898438 -87.5625 123.734375 -74.8125 L 111.203125 -74.8125 C 107.597656 -84.175781 101.785156 -91.625 93.765625 -97.15625 C 85.648438 -102.6875 76.679688 -105.453125 66.859375 -105.453125 C 53.765625 -105.453125 42.59375 -100.828125 33.34375 -91.578125 C 24.09375 -82.316406 19.46875 -71.144531 19.46875 -58.0625 C 19.46875 -45.082031 24.09375 -33.910156 33.34375 -24.546875 C 42.488281 -15.179688 53.660156 -10.5 66.859375 -10.5 C 77.242188 -10.5 86.722656 -13.488281 95.296875 -19.46875 C 103.753906 -25.5625 109.675781 -33.570312 113.0625 -43.5 L 66.359375 -43.5 L 66.359375 -53.828125 Z M 126.265625 -53.828125 "/></g></g></g><g fill="#0982a8" fill-opacity="1"><g transform="translate(813.139196, 345.995431)"><g><path d="M 102.0625 -57.546875 C 102.0625 -49.203125 100.539062 -41.53125 97.5 -34.53125 C 94.332031 -27.414062 90.097656 -21.320312 84.796875 -16.25 C 79.492188 -11.164062 73.234375 -7.21875 66.015625 -4.40625 C 58.796875 -1.46875 51.066406 0 42.828125 0 L 12.6875 0 L 12.6875 -115.09375 L 42.828125 -115.09375 C 51.066406 -115.09375 58.796875 -113.6875 66.015625 -110.875 C 73.234375 -107.9375 79.492188 -103.925781 84.796875 -98.84375 C 90.097656 -93.769531 94.332031 -87.734375 97.5 -80.734375 C 100.539062 -73.628906 102.0625 -65.898438 102.0625 -57.546875 Z M 90.5625 -57.546875 C 90.5625 -70.640625 85.929688 -81.585938 76.671875 -90.390625 C 67.648438 -98.960938 56.476562 -103.25 43.15625 -103.25 L 24.546875 -103.25 L 24.546875 -11.84375 L 43.15625 -11.84375 C 56.476562 -11.84375 67.648438 -16.132812 76.671875 -24.71875 C 85.929688 -33.519531 90.5625 -44.460938 90.5625 -57.546875 Z M 90.5625 -57.546875 "/></g></g></g><g fill="#0982a8" fill-opacity="1"><g transform="translate(922.823275, 345.995431)"><g><path d="M 81.078125 0 L 12.6875 0 L 12.6875 -115.09375 L 81.078125 -115.09375 L 81.078125 -104.09375 L 24.546875 -104.09375 L 24.546875 -63.140625 L 79.390625 -63.140625 L 79.390625 -51.96875 L 24.546875 -51.96875 L 24.546875 -11 L 81.078125 -11 Z M 81.078125 0 "/></g></g></g><g fill="#0982a8" fill-opacity="1"><g transform="translate(1016.596374, 345.995431)"><g><path d="M 54 6.9375 L 1.6875 -115.09375 L 14.5625 -115.09375 L 54 -22.34375 L 93.265625 -115.09375 L 106.125 -115.09375 Z M 54 6.9375 "/></g></g></g></svg>